<?xml version="1.0" encoding="iso-8859-1"?>
<!-- Generator: Adobe Illustrator 19.0.0, SVG Export Plug-In . SVG Version: 6.00 Build 0)  -->
<svg version="1.1" id="Layer_1" xmlns="http://www.w3.org/2000/svg" xmlns:xlink="http://www.w3.org/1999/xlink" x="0px" y="0px"
	 viewBox="0 0 512.124 512.124" style="enable-background:new 0 0 512.124 512.124;" xml:space="preserve">
<g>
	<g>
		<path d="M450.012,160.126c-34.172,0-61.976,27.808-61.976,61.988v81.948c0,2.208,1.792,4,4,4s4-1.792,4-4v-81.948
			c0-29.768,24.212-53.988,53.976-53.988c29.836,0,54.112,24.22,54.112,53.988c0,21.368-11.14,39.416-29.804,48.276
			c-1.396,0.66-2.284,2.068-2.284,3.612v90.06c0,2.208,1.792,4,4,4s4-1.792,4-4V276.47c19.856-10.472,32.088-31.068,32.088-54.356
			C512.124,187.934,484.26,160.126,450.012,160.126z"/>
	</g>
</g>
<g>
	<g>
		<path d="M352.036,412.062h-264.1c-26.412,0-47.9-21.216-47.9-47.292v-90.768c0-1.544-0.888-2.952-2.284-3.612
			C19.124,261.546,8,243.498,8,222.114c0-29.768,24.232-53.988,54.016-53.988c29.788,0,54.02,24.22,54.02,53.988v81.948
			c0,2.208,1.792,4,4,4s4-1.792,4-4v-81.948c0-34.18-27.824-61.988-62.02-61.988C27.82,160.126,0,187.934,0,222.114
			c0,23.668,11.924,43.8,32.036,54.36v88.296c0,30.488,25.076,55.292,55.9,55.292h264.1c2.208,0,4-1.792,4-4
			S354.244,412.062,352.036,412.062z"/>
	</g>
</g>
<g>
	<g>
		<path d="M475.788,360.518c-2.208,0-4,1.792-4,4c0,26.216-21.332,47.544-47.556,47.544h-32.196c-2.208,0-4,1.792-4,4s1.792,4,4,4
			h32.196c30.632,0,55.556-24.916,55.556-55.544C479.788,362.31,477.996,360.518,475.788,360.518z"/>
	</g>
</g>
<g>
	<g>
		<path d="M379.152,284.062H132.924c-9.312,0-16.888,7.576-16.888,16.884v38.228c0,9.312,7.576,16.888,16.888,16.888h246.224
			c9.312,0,16.888-7.576,16.888-16.884V300.95C396.036,291.638,388.46,284.062,379.152,284.062z M388.036,339.174
			c0,4.9-3.988,8.888-8.884,8.888H132.924c-4.9,0-8.888-3.988-8.888-8.884V300.95c0-4.9,3.988-8.888,8.888-8.888h246.224
			c4.9,0,8.888,3.988,8.888,8.884V339.174z"/>
	</g>
</g>
<g>
	<g>
		<path d="M444.036,408.062c-2.208,0-4,1.792-4,4v27.256c0,4.904-3.884,8.744-8.844,8.744H80.98c-4.932,0-8.944-3.92-8.944-8.744
			v-27.256c0-2.208-1.792-4-4-4s-4,1.792-4,4v27.256c0,9.232,7.6,16.744,16.944,16.744h350.212c9.288,0,16.844-7.512,16.844-16.744
			v-27.256C448.036,409.854,446.244,408.062,444.036,408.062z"/>
	</g>
</g>
<g>
	<g>
		<path d="M368.544,56.062H144.12c-46.364,0-84.084,37.68-84.084,84v24c0,2.208,1.792,4,4,4s4-1.792,4-4v-24
			c0-41.908,34.132-76,76.084-76h224.424c41.628,0,75.492,34.092,75.492,76v24c0,2.208,1.792,4,4,4s4-1.792,4-4v-24
			C452.036,93.742,414.58,56.062,368.544,56.062z"/>
	</g>
</g>
<g>
	<g>
		<g>
			<path d="M324.036,76.062h-20c-2.208,0-4,1.792-4,4s1.792,4,4,4h20c2.208,0,4-1.792,4-4S326.244,76.062,324.036,76.062z"/>
			<path d="M410.632,91.878c-11.668-10.2-26.612-15.816-42.084-15.816c-0.088,0-0.172,0-0.256,0.008
				c-0.084-0.008-0.172-0.008-0.256-0.008h-28c-2.208,0-4,1.792-4,4s1.792,4,4,4h28c0.084,0,0.172,0,0.256-0.008
				c0.084,0.008,0.172,0.008,0.256,0.008c13.532,0,26.608,4.916,36.816,13.84c0.76,0.66,1.7,0.988,2.632,0.988
				c1.116,0,2.22-0.464,3.016-1.368C412.464,95.858,412.296,93.334,410.632,91.878z"/>
		</g>
	</g>
</g>
<g>
	<g>
		<g>
			<path d="M42.072,185.254c-13.508,7.388-21.896,21.512-21.896,36.86c0,2.208,1.792,4,4,4s4-1.792,4-4.004
				c0-12.42,6.796-23.856,17.736-29.84c1.936-1.06,2.648-3.492,1.588-5.428C46.44,184.91,44.012,184.194,42.072,185.254z"/>
			<path d="M81.876,185.042c-6.036-3.22-12.852-4.92-19.712-4.92c-2.208,0-4,1.792-4,4s1.792,4,4,4
				c5.552,0,11.064,1.376,15.944,3.98c0.6,0.32,1.244,0.472,1.88,0.472c1.432,0,2.812-0.764,3.536-2.12
				C84.56,188.506,83.824,186.082,81.876,185.042z"/>
		</g>
	</g>
</g>
<g>
</g>
<g>
</g>
<g>
</g>
<g>
</g>
<g>
</g>
<g>
</g>
<g>
</g>
<g>
</g>
<g>
</g>
<g>
</g>
<g>
</g>
<g>
</g>
<g>
</g>
<g>
</g>
<g>
</g>
</svg>
