<?xml version="1.0" encoding="iso-8859-1"?>
<!-- Generator: Adobe Illustrator 19.0.0, SVG Export Plug-In . SVG Version: 6.00 Build 0)  -->
<svg version="1.1" id="Layer_1" xmlns="http://www.w3.org/2000/svg" xmlns:xlink="http://www.w3.org/1999/xlink" x="0px" y="0px"
	 viewBox="0 0 508 508" style="enable-background:new 0 0 508 508;" xml:space="preserve">
<g>
	<g>
		<path d="M176.192,98.544c-1.38-1.72-3.904-1.992-5.624-0.612l-12.84,10.32c-1.724,1.384-1.996,3.9-0.612,5.624
			c0.788,0.984,1.952,1.496,3.12,1.496c0.88,0,1.764-0.288,2.504-0.884l12.84-10.32C177.304,102.784,177.576,100.268,176.192,98.544
			z"/>
	</g>
</g>
<g>
	<g>
		<path d="M175.58,58.156l-12.84-10.324c-1.72-1.38-4.24-1.112-5.624,0.612c-1.384,1.72-1.112,4.24,0.612,5.624l12.84,10.324
			c0.74,0.596,1.624,0.884,2.504,0.884c1.168,0,2.328-0.512,3.12-1.496C177.576,62.06,177.304,59.54,175.58,58.156z"/>
	</g>
</g>
<g>
	<g>
		<path d="M176.192,196.24c-1.38-1.72-3.904-1.992-5.624-0.612l-12.84,10.32c-1.724,1.384-1.996,3.9-0.612,5.624
			c0.788,0.984,1.952,1.496,3.12,1.496c0.88,0,1.764-0.292,2.504-0.884l12.84-10.32C177.304,200.48,177.576,197.964,176.192,196.24z
			"/>
	</g>
</g>
<g>
	<g>
		<path d="M175.58,155.852l-12.84-10.32c-1.72-1.38-4.24-1.108-5.624,0.612c-1.384,1.724-1.112,4.24,0.612,5.624l12.84,10.32
			c0.74,0.596,1.624,0.884,2.504,0.884c1.168,0,2.328-0.512,3.12-1.496C177.576,159.752,177.304,157.236,175.58,155.852z"/>
	</g>
</g>
<g>
	<g>
		<path d="M223.04,108.252l-12.836-10.32c-1.716-1.38-4.24-1.108-5.624,0.612c-1.384,1.72-1.112,4.24,0.612,5.624l12.836,10.32
			c0.74,0.596,1.624,0.884,2.504,0.884c1.168,0,2.328-0.512,3.12-1.496C225.036,112.156,224.764,109.636,223.04,108.252z"/>
	</g>
</g>
<g>
	<g>
		<path d="M223.652,48.444c-1.384-1.724-3.904-1.992-5.624-0.612l-12.836,10.324c-1.724,1.384-1.996,3.904-0.612,5.624
			c0.792,0.988,1.952,1.496,3.12,1.496c0.88,0,1.764-0.288,2.504-0.884l12.836-10.324C224.764,52.684,225.036,50.164,223.652,48.444
			z"/>
	</g>
</g>
<g>
	<g>
		<path d="M223.04,205.948l-12.836-10.32c-1.716-1.38-4.24-1.108-5.624,0.612c-1.384,1.72-1.112,4.24,0.612,5.624l12.836,10.32
			c0.74,0.596,1.624,0.884,2.504,0.884c1.168,0,2.328-0.512,3.12-1.496C225.036,209.852,224.764,207.332,223.04,205.948z"/>
	</g>
</g>
<g>
	<g>
		<path d="M223.652,146.144c-1.384-1.72-3.904-1.992-5.624-0.612l-12.836,10.32c-1.724,1.384-1.996,3.904-0.612,5.624
			c0.792,0.984,1.952,1.496,3.12,1.496c0.88,0,1.764-0.292,2.504-0.884l12.836-10.32
			C224.764,150.384,225.036,147.864,223.652,146.144z"/>
	</g>
</g>
<g>
	<g>
		<path d="M309.912,98.544c-1.384-1.72-3.896-1.988-5.624-0.608l-12.828,10.32c-1.72,1.384-1.992,3.9-0.608,5.624
			c0.792,0.984,1.952,1.492,3.12,1.492c0.88,0,1.764-0.288,2.504-0.884l12.828-10.32
			C311.024,102.784,311.296,100.268,309.912,98.544z"/>
	</g>
</g>
<g>
	<g>
		<path d="M309.308,58.16L296.48,47.836c-1.72-1.384-4.236-1.116-5.624,0.608c-1.388,1.72-1.112,4.24,0.608,5.624l12.828,10.324
			c0.74,0.596,1.624,0.884,2.504,0.884c1.168,0,2.328-0.508,3.12-1.492C311.304,62.064,311.028,59.544,309.308,58.16z"/>
	</g>
</g>
<g>
	<g>
		<path d="M309.912,196.24c-1.384-1.716-3.896-1.988-5.624-0.608l-12.828,10.32c-1.72,1.384-1.992,3.9-0.608,5.624
			c0.792,0.984,1.952,1.492,3.12,1.492c0.88,0,1.764-0.292,2.504-0.884l12.828-10.32C311.024,200.48,311.296,197.964,309.912,196.24
			z"/>
	</g>
</g>
<g>
	<g>
		<path d="M309.308,155.856l-12.828-10.32c-1.72-1.384-4.236-1.112-5.624,0.608c-1.388,1.72-1.112,4.24,0.608,5.624l12.828,10.32
			c0.74,0.596,1.624,0.884,2.504,0.884c1.168,0,2.328-0.512,3.12-1.492C311.304,159.76,311.028,157.24,309.308,155.856z"/>
	</g>
</g>
<g>
	<g>
		<path d="M356.772,108.252l-12.84-10.32c-1.716-1.38-4.24-1.108-5.624,0.612c-1.384,1.724-1.112,4.24,0.612,5.624l12.84,10.32
			c0.74,0.596,1.624,0.884,2.504,0.884c1.168,0,2.328-0.512,3.12-1.496C358.768,112.152,358.496,109.636,356.772,108.252z"/>
	</g>
</g>
<g>
	<g>
		<path d="M357.384,48.444c-1.38-1.724-3.904-1.992-5.624-0.612l-12.84,10.324c-1.724,1.384-1.996,3.904-0.612,5.624
			c0.788,0.984,1.952,1.496,3.12,1.496c0.88,0,1.764-0.288,2.504-0.884l12.84-10.324C358.496,52.684,358.768,50.164,357.384,48.444z
			"/>
	</g>
</g>
<g>
	<g>
		<path d="M356.772,205.948l-12.84-10.32c-1.716-1.38-4.24-1.108-5.624,0.612c-1.384,1.724-1.112,4.24,0.612,5.624l12.84,10.32
			c0.74,0.596,1.624,0.884,2.504,0.884c1.168,0,2.328-0.512,3.12-1.496C358.768,209.848,358.496,207.332,356.772,205.948z"/>
	</g>
</g>
<g>
	<g>
		<path d="M357.384,146.144c-1.38-1.72-3.904-1.992-5.624-0.612l-12.84,10.32c-1.724,1.384-1.996,3.9-0.612,5.624
			c0.788,0.984,1.952,1.496,3.12,1.496c0.88,0,1.764-0.292,2.504-0.884l12.84-10.32
			C358.496,150.384,358.768,147.868,357.384,146.144z"/>
	</g>
</g>
<g>
	<g>
		<path d="M422.448,0H88.168C78.344,0,72,5.344,72,13.616V212c0,2.208,1.792,4,4,4s4-1.792,4-4V13.616C80,8.976,84.44,8,88.164,8
			h334.28C426.912,8,428,9.1,428,13.616V212c0,2.208,1.792,4,4,4s4-1.792,4-4V13.616C436,4.708,431.312,0,422.448,0z"/>
	</g>
</g>
<g>
	<g>
		<path d="M416,260H92c-2.208,0-4,1.792-4,4s1.792,4,4,4h324c2.208,0,4-1.792,4-4S418.208,260,416,260z"/>
	</g>
</g>
<g>
	<g>
		<path d="M452,236h-36c-2.208,0-4,1.792-4,4v264c0,2.208,1.792,4,4,4h36c2.208,0,4-1.792,4-4V240C456,237.792,454.208,236,452,236z
			 M448,500h-28V244h28V500z"/>
	</g>
</g>
<g>
	<g>
		<path d="M468,208h-68c-2.208,0-4,1.792-4,4v28c0,2.208,1.792,4,4,4h68c2.208,0,4-1.792,4-4v-28C472,209.792,470.208,208,468,208z
			 M464,236h-60v-20h60V236z"/>
	</g>
</g>
<g>
	<g>
		<path d="M92,236H56c-2.208,0-4,1.792-4,4v264c0,2.208,1.792,4,4,4h36c2.208,0,4-1.792,4-4V240C96,237.792,94.208,236,92,236z
			 M88,500H60V244h28V500z"/>
	</g>
</g>
<g>
	<g>
		<path d="M108,208H40c-2.208,0-4,1.792-4,4v28c0,2.208,1.792,4,4,4h68c2.208,0,4-1.792,4-4v-28C112,209.792,110.208,208,108,208z
			 M104,236H44v-20h60V236z"/>
	</g>
</g>
<g>
	<g>
		<path d="M416,308h-28c-2.208,0-4,1.792-4,4s1.792,4,4,4h24v24H96v-24h240c2.208,0,4-1.792,4-4s-1.792-4-4-4H92
			c-2.208,0-4,1.792-4,4v32c0,2.208,1.792,4,4,4h324c2.208,0,4-1.792,4-4v-32C420,309.792,418.208,308,416,308z"/>
	</g>
</g>
<g>
</g>
<g>
</g>
<g>
</g>
<g>
</g>
<g>
</g>
<g>
</g>
<g>
</g>
<g>
</g>
<g>
</g>
<g>
</g>
<g>
</g>
<g>
</g>
<g>
</g>
<g>
</g>
<g>
</g>
</svg>
